<svg xmlns="http://www.w3.org/2000/svg" width="30" height="30" viewBox="0 0 30 30">
    <g fill="none" fill-rule="evenodd">
        <g fill="#F2AF00">
            <g>
                <g>
                    <path d="M22 3.5V26H8V3.5h14zm-7.002 19.455c-.643 0-1.164.513-1.164 1.147s.521 1.148 1.164 1.148c.642 0 1.163-.514 1.163-1.148 0-.634-.521-1.147-1.163-1.147zm0 .407c.414 0 .75.331.75.74 0 .41-.336.74-.75.74s-.75-.33-.75-.74c0-.409.336-.74.75-.74zM20.965 6h-12v15.74h12V6zM16 10.51v2h-2v-2h2zm-3.5-.01v2h-2v-2h2zM16 7.51v2h-2v-2h2zm-3.5-.01v2h-2v-2h2zm7 0v2h-2v-2h2z" transform="translate(-230 -1493) translate(230 1328) translate(0 165)"/>
                </g>
            </g>
        </g>
    </g>
</svg>
