<svg xmlns="http://www.w3.org/2000/svg" width="39" height="42" viewBox="0 0 39 42">
    <g fill="none" fill-rule="evenodd">
        <g fill="#002855">
            <g>
                <g>
                    <path d="M84.46 73.72c6.42 0 11.1-2.76 14.64-7.14l-2.88-1.8c-2.58 3.48-6.96 5.82-11.76 5.82-7.62 0-13.8-4.74-15.84-12.12h19.5v-2.46h-20.1c-.12-.96-.18-1.98-.18-3 0-1.08.06-2.1.18-3.12h20.1v-2.46h-19.5c2.1-7.32 8.28-12 15.84-12 4.8 0 9.18 2.34 11.76 5.82l2.82-1.86c-3.36-4.26-8.16-7.08-14.58-7.08-9.48 0-17.34 5.94-19.56 15.12h-3.3v2.46h2.82c-.18 1.02-.24 2.04-.24 3.12 0 1.02.06 2.04.24 3H61.6v2.46h3.24c2.22 9.24 10.08 15.24 19.62 15.24z" transform="translate(-1303 -976) translate(198 944) translate(1044)"/>
                </g>
            </g>
        </g>
    </g>
</svg>
