<svg xmlns="http://www.w3.org/2000/svg" width="360" height="360" viewBox="0 0 360 360">
    <g fill="none" fill-rule="evenodd">
        <g fill="#F2AF00">
            <g>
                <path d="M340.964 95.66v180h-252l-.002-74.665-47.933.005v-12l47.933-.005v-18L18 171v-12l70.962-.005.002-63.336h252zm-99.332 102.935l-26.668 25.34-26.27-24.956-77.994 64.674h209.154l-78.222-65.058zm-140.676-82.968v43.368l21.901.005v12l-21.901-.005v85.146l78.978-65.49-78.978-75.024zm228 .012l-78.564 74.634 78.564 65.34V115.64zM81.75 219v12h-46.5v-12h46.5zm238.188-111.347H109.986l104.976 99.725 104.976-99.725zM81.643 129v12H29.029v-12h52.614z" transform="translate(-1078 -195) translate(1078 195)"/>
            </g>
        </g>
    </g>
</svg>
