<svg xmlns="http://www.w3.org/2000/svg" width="60" height="60" viewBox="0 0 60 60">
    <g fill="none" fill-rule="evenodd">
        <g fill="#002855">
            <g>
                <g>
                    <g>
                        <path d="M49.72 7.761l.162.626.31 1.233.293 1.206.139.594.264 1.168.247 1.142.228 1.116.21 1.09.19 1.066.173 1.039.08.51.145 1c.725 5.267.667 9.434-.174 12.503-1.06 3.864-4.159 8.628-8.891 9.997-2.992.866-6.034.525-9.126-1.024-1.201 4.391-1.83 9.475-1.882 15.248l-.004.792h-2l.004-.813c.012-1.317.053-2.601.124-3.851l-.067.05-2.746-3.667-2.188-2.898-.195-.253c-4.82.522-8.673-.29-11.562-2.434-2.47-1.834-4.207-6.011-4.313-8.833l-.005-.268c0-2.659-1.045-5.43-3.136-8.312l1.289.017 1.231.03.945.033.909.042.44.024 1.268.085.8.067c.52.048 1.017.101 1.49.16l.69.093.655.1c1.803.3 3.17.7 4.1 1.202 4.034 2.18 6.616 5.85 6.616 10.433l-.004 1.118-.012 1.064-.02 1.009-.029.954-.036.899-.047.881.81 1.063 2.591 3.439.749 1c.331-3.388.899-6.506 1.703-9.355-2.715-1.39-4.46-3.166-5.233-5.33-1.372-3.83-1.327-7.977.503-11.441 2.04-3.86 7.235-7.295 12.33-8.667l.382-.099c3.477-.866 6.677-3.148 9.6-6.848zM9.596 27.875l.09.183c.896 1.896 1.383 3.778 1.443 5.642l.007.4c0 2.448 1.655 6.118 3.51 7.495 2.212 1.642 5.17 2.378 8.931 2.155l-.656-.85-.437-.551-.47-.583-.771-.93-.556-.657-.59-.688-.625-.718-1-1.134-1.076-1.202-1.152-1.27-1.077-1.174 1.473-1.352 1.479 1.615.768.848.735.819 1.038 1.17.963 1.105.885 1.037.549.654.514.624.48.594.336.423.022-.87.02-1.43.004-1.156c0-3.672-2.008-6.75-5.567-8.673-.727-.393-1.869-.723-3.411-.98l-.639-.098-.68-.091-.724-.083-.765-.075-.807-.067-.848-.058-.89-.05-.506-.024zm39.198-15.486l-.116-.501-.015.016c-2.357 2.249-4.9 3.768-7.627 4.532l-.432.114c-4.882 1.216-9.693 4.475-11.428 7.759-1.5 2.84-1.625 6.38-.388 9.834.561 1.568 1.853 2.929 3.962 4.067l.081-.223.215-.565.237-.59.26-.616.28-.64.303-.667.102-.218c-1.753-1.928-2.932-4.605-3.555-8.011l-.08-.464 1.973-.325c.477 2.892 1.355 5.163 2.62 6.827l.373-.731.413-.794.435-.82.457-.846.48-.872.5-.897.193-.34c-.928-1.523-1.438-3.445-1.543-5.756l-.015-.429 2-.048c.038 1.641.292 3.026.75 4.16l.544-.93.91-1.529.633-1.051.993-1.627 1.704 1.047-.977 1.6-.624 1.036-.894 1.504-.601 1.028c1.116.077 2.377-.074 3.786-.46l.388-.112.573 1.917-.413.118c-2.005.552-3.813.696-5.418.42l-.46.816-.481.867-.682 1.253-.426.802-.405.776-.458.901c1.884.075 4.006-.37 6.367-1.35l.446-.19.802 1.833-.433.184c-2.976 1.242-5.684 1.734-8.12 1.456l-.298.657-.273.62-.251.594-.23.567-.207.541-.185.515.023-.067.193.102c2.695 1.378 5.259 1.678 7.785.947 3.48-1.007 6.431-4.64 7.518-8.605.882-3.217.809-7.93-.25-14.093l-.192-1.071c-.067-.362-.137-.728-.21-1.1l-.23-1.127c-.12-.571-.247-1.153-.382-1.745z" transform="translate(-596 -967) translate(198 944) translate(333) translate(65 23)"/>
                    </g>
                </g>
            </g>
        </g>
    </g>
</svg>
