<svg xmlns="http://www.w3.org/2000/svg" width="40" height="40" viewBox="0 0 40 40">
    <g fill="none" fill-rule="evenodd">
        <g fill="#F2AF00">
            <g>
                <g>
                    <path d="M26.568 19.254c3.121 1.645 5.17 4.406 5.17 7.535 0 5.04-5.315 9.126-11.87 9.126C13.315 35.915 8 31.829 8 26.789c0-3.13 2.048-5.89 5.17-7.535l.478.627 6.22 7.993 6.218-7.989.482-.631zm-6.7-13.92c4.272 0 7.735 3.462 7.735 7.734 0 1.02-.206 1.976-.703 3.188l-.16.316-.145.274-.136.242-.095.158-.183.286-.148.213-.277.373-.726.953-5.162 6.632-5.164-6.636-.976-1.288-.131-.188-.126-.19c-.067-.103-.13-.205-.192-.313l-.058-.1-.12-.22-.132-.254-.15-.3c-.478-1.17-.685-2.125-.685-3.146 0-4.272 3.463-7.735 7.734-7.735zm0 3.856c-1.7 0-3.08 1.379-3.08 3.08s1.38 3.08 3.08 3.08c1.702 0 3.081-1.379 3.081-3.08s-1.379-3.08-3.08-3.08z" transform="translate(-987 -1546) translate(230 1328) translate(757 218)"/>
                </g>
            </g>
        </g>
    </g>
</svg>
