<svg xmlns="http://www.w3.org/2000/svg" width="150" height="16" viewBox="0 0 150 16">
    <g fill="none" fill-rule="evenodd">
        <g fill-rule="nonzero">
            <g>
                <g>
                    <path fill="#002855" d="M22.085 15.414c2.973 0 4.705-1.519 4.705-3.574 0-2.86-2.61-3.306-4.363-3.619-1.09-.201-1.647-.38-1.647-.871 0-.47.535-.737 1.305-.737 1.24 0 2.416.558 3.037 1.184l1.262-2.28c-1.113-.848-2.588-1.429-4.32-1.429-2.867 0-4.428 1.653-4.428 3.552 0 2.748 2.481 3.128 4.235 3.44 1.07.18 1.775.38 1.775.939 0 .469-.406.804-1.39.804-1.22 0-2.866-.715-3.636-1.43l-1.369 2.368c1.09 1.005 2.994 1.653 4.834 1.653zm9.688-.268v-6.97c.342-.446.963-1.05 1.84-1.05 1.005 0 1.368.626 1.368 1.452v6.568h3.294v-6.97c.32-.446.962-1.05 1.86-1.05.984 0 1.37.626 1.37 1.452v6.568h3.272V7.327c0-2.211-1.198-3.239-3.102-3.239-1.625 0-2.972.983-3.571 1.921-.428-1.273-1.455-1.92-2.93-1.92-1.626 0-2.952.96-3.4 1.585V4.356h-3.295v10.79h3.294zm18.308.268c1.326 0 2.566-.536 3.208-1.34v1.072h3.293V8.4c0-3.351-2.33-4.312-4.812-4.312-1.582 0-3.358.492-4.684 1.676l1.177 2.167c.834-.738 1.903-1.14 2.93-1.14 1.326 0 2.096.626 2.096 1.564v1.363c-.62-.804-1.84-1.251-3.208-1.251-1.583 0-3.55.782-3.55 3.395 0 2.435 1.967 3.552 3.55 3.552zm1.368-2.256c-.876 0-1.646-.402-1.646-1.251 0-.849.77-1.251 1.646-1.251.728 0 1.498.268 1.84.76v.96c-.342.514-1.112.782-1.84.782zm10.822 1.988V8.31c.428-.625 1.562-1.005 2.417-1.005.342 0 .62.045.813.112V4.088c-1.24 0-2.545.76-3.23 1.63V4.357h-3.293v10.79h3.293zm8.64.268c1.22 0 2.033-.312 2.439-.715l-.642-2.59c-.107.133-.47.267-.834.267-.577 0-.92-.469-.92-1.094V7.35h2.097V4.356h-2.096V1.407h-3.273v2.95h-1.71V7.35h1.71v4.892c0 2.078 1.134 3.172 3.23 3.172zm12.213-.268c2.802 0 4.192-1.876 4.192-4.043 0-1.877-1.198-3.396-2.716-3.642 1.347-.312 2.438-1.563 2.438-3.418 0-1.876-1.348-3.797-4.17-3.797h-8.085v14.9h8.341zm-1.09-9.137h-3.572V3.44h3.571c.749 0 1.262.536 1.262 1.274 0 .737-.513 1.295-1.262 1.295zm.128 5.943h-3.7v-2.77h3.7c.898 0 1.411.647 1.411 1.407 0 .804-.535 1.363-1.411 1.363zm10.843 3.194v-5.048h1.882l2.395 5.048h4.214l-2.909-5.473c1.326-.491 2.845-1.876 2.845-4.468 0-2.77-1.797-4.96-4.962-4.96h-7.144v14.901h3.679zm2.909-8.31h-2.91V3.485h2.91c.962 0 1.775.648 1.775 1.675 0 1.028-.813 1.676-1.775 1.676zm11.228 8.31V.246h-3.679v14.9h3.679zm9.453.268c3.55 0 5.411-2.077 6.33-3.998l-3.165-1.564c-.47 1.184-1.69 2.167-3.165 2.167-2.224 0-3.871-1.877-3.871-4.312 0-2.435 1.647-4.311 3.871-4.311 1.476 0 2.695.983 3.165 2.167l3.166-1.564c-.941-1.966-2.78-3.999-6.33-3.999-4.278 0-7.615 3.105-7.615 7.707 0 4.58 3.337 7.707 7.614 7.707zm11.592-.268V10.79l.962-1.251 3.743 5.607h4.513l-5.839-7.93 5.54-6.97h-4.535l-4.384 6.12V.247h-3.679v14.9h3.679zm15.613.268c3.828 0 5.945-1.988 5.945-4.981 0-2.97-2.52-3.88-4.728-4.405l-.163-.038c-.243-.057-.482-.11-.712-.16-1.583-.312-2.46-.58-2.46-1.362 0-.648.47-1.162 1.69-1.162 1.262 0 2.823.514 4.02 1.542l2.011-2.748C147.885.737 145.896.022 143.607.022c-3.657 0-5.689 2.167-5.689 4.67 0 3.529 3.294 4.154 5.646 4.646 1.519.335 2.439.67 2.439 1.52 0 .714-.77 1.272-2.032 1.272-1.946 0-3.53-.893-4.556-1.965l-1.946 2.881c1.433 1.43 3.443 2.368 6.33 2.368z" transform="translate(-60 -31) translate(59 31) translate(.8 .25)"/>
                    <g fill="#F2AF00">
                        <path d="M12.139 5.434L12.139 9.358 3.468 9.358 3.468 5.434zM8.671 10.868L8.671 14.792 0 14.792 0 10.868zM8.671 0L8.671 3.925 0 3.925 0 0z" transform="translate(-60 -31) translate(59 31) translate(.8 .25) translate(.2 .354)"/>
                    </g>
                </g>
            </g>
        </g>
    </g>
</svg>
