<svg xmlns="http://www.w3.org/2000/svg" width="200" height="21" viewBox="0 0 200 21">
    <g fill="none" fill-rule="evenodd">
        <g fill-rule="nonzero">
            <g>
                <g>
                    <path fill="#002855" d="M29.446 20.231c3.964 0 6.274-1.993 6.274-4.691 0-3.753-3.48-4.34-5.817-4.75-1.455-.264-2.196-.498-2.196-1.143 0-.616.713-.968 1.74-.968 1.653 0 3.222.733 4.049 1.554l1.682-2.99c-1.483-1.115-3.45-1.877-5.76-1.877-3.821 0-5.903 2.17-5.903 4.662 0 3.606 3.308 4.105 5.646 4.515 1.426.235 2.367.499 2.367 1.232 0 .615-.542 1.055-1.854 1.055-1.625 0-3.82-.938-4.847-1.876l-1.825 3.108c1.454 1.319 3.992 2.17 6.444 2.17zm12.918-.352v-9.148c.456-.586 1.283-1.378 2.453-1.378 1.34 0 1.825.821 1.825 1.906v8.62h4.391v-9.148c.428-.586 1.283-1.378 2.481-1.378 1.312 0 1.825.821 1.825 1.906v8.62h4.363V9.617c0-2.903-1.597-4.251-4.135-4.251-2.167 0-3.964 1.29-4.762 2.521-.57-1.671-1.94-2.521-3.907-2.521-2.167 0-3.935 1.26-4.534 2.081v-1.73h-4.391V19.88h4.391zm24.41.352c1.768 0 3.422-.703 4.278-1.759v1.407h4.391v-8.854c0-4.399-3.108-5.66-6.416-5.66-2.11 0-4.477.646-6.245 2.2l1.568 2.844c1.112-.968 2.538-1.495 3.907-1.495 1.768 0 2.795.82 2.795 2.052v1.789c-.827-1.056-2.453-1.642-4.278-1.642-2.11 0-4.734 1.026-4.734 4.456 0 3.196 2.624 4.662 4.734 4.662zM68.6 17.27c-1.169 0-2.196-.528-2.196-1.642 0-1.114 1.027-1.642 2.196-1.642.97 0 1.996.352 2.453.997v1.26c-.457.675-1.483 1.027-2.453 1.027zm14.43 2.61v-8.973c.57-.82 2.081-1.32 3.222-1.32.456 0 .827.06 1.083.147V5.366c-1.653 0-3.393.997-4.305 2.14V5.718h-4.392v14.161h4.392zm11.52.351c1.626 0 2.71-.41 3.251-.938l-.855-3.401c-.143.176-.628.352-1.113.352-.77 0-1.226-.616-1.226-1.437v-5.16h2.795v-3.93h-2.795v-3.87h-4.363v3.87h-2.281v3.93h2.281v6.42c0 2.728 1.512 4.164 4.306 4.164zm16.283-.352c3.736 0 5.59-2.462 5.59-5.307 0-2.463-1.598-4.456-3.622-4.779 1.796-.41 3.25-2.052 3.25-4.486 0-2.463-1.796-4.984-5.56-4.984H99.71v19.556h11.122zm-1.454-11.992h-4.763V4.515h4.763c.998 0 1.682.704 1.682 1.672 0 .967-.684 1.7-1.682 1.7zm.17 7.8h-4.933V12.05h4.934c1.197 0 1.882.85 1.882 1.847 0 1.056-.713 1.789-1.882 1.789zm14.459 4.192v-6.626h2.509l3.194 6.626h5.618l-3.879-7.183c1.768-.645 3.793-2.463 3.793-5.864 0-3.636-2.395-6.51-6.616-6.51h-9.524V19.88h4.905zm3.878-10.907h-3.878V4.574h3.878c1.283 0 2.367.85 2.367 2.2 0 1.348-1.084 2.198-2.367 2.198zm14.97 10.907V.323h-4.904v19.556h4.905zm12.605.352c4.734 0 7.215-2.727 8.441-5.248l-4.22-2.053c-.628 1.554-2.253 2.845-4.22 2.845-2.967 0-5.162-2.463-5.162-5.66 0-3.195 2.195-5.658 5.161-5.658 1.968 0 3.593 1.29 4.22 2.844l4.221-2.053C162.646 2.668 160.194 0 155.461 0c-5.704 0-10.153 4.076-10.153 10.116 0 6.01 4.449 10.115 10.152 10.115zm15.456-.352v-5.717l1.283-1.642 4.99 7.36h6.018l-7.785-10.41 7.385-9.147h-6.045l-5.846 8.033V.323h-4.905v19.556h4.905zm20.817.352c5.104 0 7.928-2.61 7.928-6.538 0-3.898-3.36-5.092-6.305-5.782l-.217-.05c-.325-.074-.643-.142-.95-.208-2.11-.41-3.28-.763-3.28-1.789 0-.85.628-1.525 2.254-1.525 1.682 0 3.764.675 5.36 2.024l2.681-3.607C197.18.968 194.528.03 191.476.03c-4.876 0-7.585 2.844-7.585 6.128 0 4.633 4.391 5.454 7.528 6.1 2.025.439 3.251.879 3.251 1.993 0 .938-1.026 1.671-2.709 1.671-2.595 0-4.705-1.173-6.074-2.58l-2.595 3.782c1.91 1.877 4.591 3.108 8.44 3.108z" transform="translate(-20 -25) translate(19 25) translate(.734 .328)"/>
                    <g fill="#F2AF00">
                        <path d="M16.185 7.132L16.185 12.283 4.624 12.283 4.624 7.132zM11.561 14.264L11.561 19.415 0 19.415 0 14.264zM11.561 0L11.561 5.151 0 5.151 0 0z" transform="translate(-20 -25) translate(19 25) translate(.734 .328) translate(.266 .464)"/>
                    </g>
                </g>
            </g>
        </g>
    </g>
</svg>
