<svg xmlns="http://www.w3.org/2000/svg" width="60" height="60" viewBox="0 0 60 60">
    <g fill="none" fill-rule="evenodd">
        <g fill="#002855">
            <g>
                <g>
                    <g>
                        <path d="M30.5 12c9.562 0 18.161 5.847 25.783 17.398L57 30.5l-.382.589C48.914 42.979 40.202 49 30.5 49c-9.562 0-18.161-5.847-25.783-17.398L4 30.5l.382-.589C12.086 18.021 20.798 12 30.5 12zm-.33 2.18h-.07c-8.542.164-16.367 5.559-23.49 16.32 7.012 10.593 14.703 15.986 23.09 16.308l.47.012c-8.923-.174-16.103-7.414-16.103-16.32s7.18-16.146 16.103-16.32zm.66 0c8.923.174 16.103 7.414 16.103 16.32s-7.18 16.146-16.103 16.32c8.569-.134 16.417-5.529 23.56-16.32-7.012-10.593-14.703-15.986-23.09-16.308l-.47-.012zm-.33 2.173c-7.866 0-14.242 6.334-14.242 14.147 0 7.813 6.376 14.147 14.242 14.147 7.866 0 14.242-6.334 14.242-14.147 0-7.813-6.376-14.147-14.242-14.147zm0 7.618c1.197 0 2.32.317 3.286.873v3.48l2.913-.001c.242.68.374 1.414.374 2.177 0 3.606-2.943 6.53-6.573 6.53-3.63 0-6.573-2.924-6.573-6.53 0-3.606 2.943-6.53 6.573-6.53z" transform="translate(-944 -967) translate(198 944) translate(678) translate(68 23)"/>
                    </g>
                </g>
            </g>
        </g>
    </g>
</svg>
