<svg xmlns="http://www.w3.org/2000/svg" width="60" height="60" viewBox="0 0 60 60">
    <g fill="none" fill-rule="evenodd">
        <g fill="#002855">
            <g>
                <g>
                    <path d="M27.786 19c6.063 0 11.107 4.598 11.722 10.565l.028.3.06.767.746.188c3.22.813 5.54 3.672 5.654 7.019l.004.258v.399c0 4.063-3.227 7.372-7.257 7.5L38.5 46h-30c-4.06 0-7.368-3.23-7.496-7.261L1 38.496v-.399c0-3.356 2.22-6.269 5.374-7.199l.25-.069.814-.21-.01-.84v-.059c0-2.96 2.399-5.36 5.358-5.36 1.052 0 2.055.303 2.915.862l.23.159.976.71.589-1.053c2.071-3.7 5.975-6.038 10.29-6.038zm11.501-7c6.865 0 12.518 5.223 13.241 11.932C56.215 24.644 59 27.89 59 31.786V34c0 4.418-3.582 8-8 8h-3.753c.385-.976.616-2.032.662-3.135l.01-.416v-.398c0-4.184-2.673-7.83-6.513-9.136-.84-6.421-6.01-11.417-12.405-12.03C31.443 13.902 35.144 12 39.287 12z" transform="translate(-248 -967) translate(198 944) translate(50 23)"/>
                </g>
            </g>
        </g>
    </g>
</svg>
